# xmcd
#
# Track frame offsets:
#	150
#	16888
#	32338
#	46106
#	58441
#	77586
#	94870
#	110004
#	124996
#	144276
#	154535
#	168787
#
# Disc length: 2534 seconds
#
# Revision: 0
# Processed by: cddbd v1.4PL0 Copyright (c) Steve Scherf et al.
# Submitted via: dBpowerAMP V4.0
#
DISCID=8e09e40c
DTITLE=RFBBellamy Brothers - Tropical Christmas
DYEAR=1996
DGENRE=Country
TTITLE0=Merry Christmas And A Happy New Year
TTITLE1=Tropical Christmas
TTITLE2=Jingle Bells (A Cowboy`s Holiday)
TTITLE3=White Christmas
TTITLE4=We All Get Crazy At Christmas
TTITLE5=Light Up The Candles
TTITLE6=Rudolph The Red-Nosed Reindeer
TTITLE7=Old Hippie Christmas
TTITLE8=Our Love Is Like Christmas
TTITLE9=Rockin` Around The Christmas Tree
TTITLE10=It`s So Close To Christmas (And I Am So Far From Home)
TTITLE11=Silent Night
EXTD=
EXTT0=
EXTT1=
EXTT2=
EXTT3=
EXTT4=
EXTT5=
EXTT6=
EXTT7=
EXTT8=
EXTT9=
EXTT10=
EXTT11=
PLAYORDER=
